<?xml version="1.0" encoding="utf-8"?>
<!-- Generator: Adobe Illustrator 19.1.0, SVG Export Plug-In . SVG Version: 6.00 Build 0)  -->
<svg version="1.1" id="Layer_1" xmlns="http://www.w3.org/2000/svg" xmlns:xlink="http://www.w3.org/1999/xlink" x="0px" y="0px"
	 viewBox="0 0 57 33.1" style="enable-background:new 0 0 57 33.1;" xml:space="preserve">
<style type="text/css">
	.st0{fill:#FFFFFF;}
</style>
<g id="dJ4MKF_1_">
	<g>
		<path d="M6,13.2c0.7-0.5,0.9-1.2,1.2-2c0.2-0.5,0.5-1,0.7-1.5c0.1-0.3,0-0.5-0.3-0.5C6.8,9.3,6.8,9.3,6.9,8.6c0-0.1,0-0.1,0-0.2
			c0.3-0.1,0.7-0.2,0.9-0.3c0.5-0.3,0.5-0.4,0.1-0.9C8,7.2,8,7.1,7.9,6.9c0.5-0.1,1-0.2,1.5-0.3c0.3-0.1,0.7-0.2,1-0.3
			c0.1-0.1,0.2-0.2,0.2-0.4c-0.1-0.1-0.3-0.2-0.4-0.2c-0.2,0-0.4,0-0.6,0c0-0.9,0.7-0.5,1.1-0.7c0-0.2-0.1-0.4-0.1-0.6
			c0,0,0.1-0.1,0.1-0.1c0.6,0.2,1.1,0,1.5-0.5c0.1-0.1,0.4-0.1,0.5,0c0.5,0.2,1,0.5,1.5,0.8c0.3,0.2,0.5,0.2,0.7-0.2
			c0.1-0.1,0.2-0.2,0.3-0.2c0.4,0,0.4-0.3,0.3-0.5c-0.1-0.3-0.3-0.5-0.5-0.7c-0.2-0.3-0.3-0.6-0.5-0.9c0,0,0.1-0.1,0.1-0.1
			C14.9,1.9,15,1.9,15,2c0.4,0.2,0.8,0.5,1.2,0.8c0.2,0.1,0.3,0.3,0.5,0.5c0,0,0.1,0,0.1-0.1c0.1-0.6,0.5-0.5,0.9-0.4
			c0.2,0,0.5,0,0.7,0c0,0,0,0.1-0.1,0.1c0.3,0.2,0.6,0.5,1,0.7c0.1,0,0.3-0.3,0.5-0.5c0.2,0.1,0.4,0.2,0.6,0.4
			c0.4,0.3,0.4,0.4-0.1,0.7c-0.1,0-0.2,0.2-0.1,0.2c0.1,0.3,0.8,0.4,1,0.2C21.6,4.4,21.8,4.2,22,4c0.3-0.3,0.5-0.2,0.9,0
			c-0.1,0.1-0.3,0.3-0.4,0.5c0.3,0.1,0.5,0.2,0.8,0.3c0,0.1,0,0.1,0,0.2c-0.4,0.2-0.8,0.3-1.2,0.5c0,0.1,0,0.1,0,0.2
			C22.5,5.7,23,5.9,23.4,6c0.2,0.1,0.4,0.1,0.7,0.2c0.3,0.1,0.7,0.2,0.5,0.7c8.8,0,17.5,0,26.3,0c0.1,7.5,0.1,14.9,0.2,22.4
			c-4.4,0-8.7,0-13.1,0c0-0.7,0-0.8-0.7-0.8c-2.1,0-4.3,0-6.4,0c-0.7,0-0.7,0.1-0.6,0.8c-7.2,0-14.4,0-21.6,0c0-0.4,0-0.8,0-1.2
			c0-4.3,0-8.7,0-13c0-0.2-0.1-0.3-0.1-0.6c-0.6,0.5-1.1,0.9-1.7,1.4c-0.1-0.6-0.2-1.1-0.2-1.6c0-0.4-0.1-0.6-0.5-0.7
			C6,13.4,6,13.3,6,13.2z M23.9,25.7L23.9,25.7c-0.5,0.2-0.9,0.4-1.4,0.7c-0.2,0.1-0.4,0.2-0.5,0.4c-0.3,0.6-0.9,1.1-1.5,1.4
			c-0.1,0.1-0.2,0.1-0.4,0.2c0.2,0,0.2,0.1,0.3,0.1c3,0,6,0,9,0.1c0.4,0,0.5-0.2,0.5-0.5c0-6.8,0-13.6,0-20.5c0-0.4-0.1-0.5-0.5-0.5
			c-1.4,0-2.9,0-4.3,0c-0.6,0-0.8,0.3-0.6,0.9c0.1,0.4,0,0.5-0.3,0.6c-0.3,0.1-0.6,0.2-1,0.4c0.8,1.6,1.5,3.2,2.3,4.8
			c0.1,0.2,0.2,0.4,0.1,0.6c-0.5,1.1-0.5,2.2-0.4,3.4c0.2,1.2,0.6,2.5,0.5,3.7c0,0,0,0.1,0,0.1c0.1,0.5,0.1,1,0.1,1.4
			c-0.5,0.3-1,0.4-1.3,0.7c-0.3,0.4-0.6,0.4-1,0.4c-0.3,0-0.7-0.1-1-0.1c-0.5,0-0.6,0.3-0.3,0.7C22.6,25.2,23.2,25.5,23.9,25.7z
			 M22.8,21.2c0.1-0.1,0.3-0.2,0.5-0.3c0.4-0.1,0.8-0.2,1.2-0.4c0.4-0.1,0.6-0.3,0.3-0.8c-0.5-0.8-1-1.6-1.6-2.4
			c-0.1-0.1-0.2-0.2-0.4-0.2c-0.9-0.1-1.3,0.2-1.6,1c0,0.1-0.1,0.2-0.1,0.2c-0.3,0.5-0.8,0.6-1.3,0.6c-0.4,0-0.8-0.1-0.9-0.6
			c0.2-0.1,0.5-0.2,0.6-0.3c0.2-0.2,0.4-0.4,0.5-0.6c-0.3,0-0.5-0.1-0.8-0.1c-0.2,0-0.4,0-0.5,0c0,0-0.1-0.1-0.1-0.1
			c0.3-0.3,0.5-0.8,0.9-0.9c0.9-0.3,1.8-0.6,2.8-0.5c0.4,0,0.5-0.2,0.6-0.5c0-0.2-0.1-0.4-0.2-0.6c-0.1-0.1-0.3-0.2-0.4-0.3
			c-0.4-0.2-0.5-0.4-0.5-0.8c0-0.5,0-1-0.1-1.5c-0.1-0.4-0.3-0.6-0.7-0.6c-0.3,0-0.6-0.1-0.8-0.1c-0.8-0.1-1.1,0.1-1,0.9
			c0,0.3,0.1,0.7,0.1,1c-0.1,0-0.1,0.1-0.1,0.1c-0.1,0-0.1,0-0.2,0c-0.5,0.1-0.9,0-1-0.7c0-0.3-0.4-0.7-0.6-0.7
			c-0.5,0.1-1-0.2-1.4,0.3c-0.3,0.4-0.3,0.8-0.1,1.3c0,0.1,0.1,0.4,0,0.4c-0.4,0.3-0.1,0.6,0.1,0.8c0.3,0.4,0.3,0.5-0.1,0.8
			c-0.3,0.2-0.9,0.1-0.7,0.7c-0.1,0-0.3,0-0.3,0c-0.2,0.7-0.3,1.5-0.6,2.1c-0.2,0.4-0.1,0.7,0.1,0.9c0.6,0.8,0.8,1.6,0.3,2.6
			c-0.2-0.3-0.4-0.6-0.5-0.9c-0.2-1-0.4-2.1-1.2-2.8C12.8,18,12.5,18,12.3,18c-0.2,0-0.4,0.4-0.3,0.5c0,0.2,0.3,0.4,0.5,0.5
			c0.2,0.1,0.4,0.1,0.6,0.2c0.1,0,0.1,0.2,0.2,0.3c-0.1,0-0.2,0-0.3,0c-0.3-0.1-0.6-0.3-0.9-0.4c-0.2-0.1-0.5-0.3-0.5-0.4
			c0-0.3,0.2-0.5,0.4-0.7c0.2-0.2,0.4-0.2,0.7-0.3c-0.3-0.8-0.9-1.2-1.5-0.9c0.5,0.4,0.1,0.8,0,1.2c-0.3-0.4-0.5-0.8-0.7-1.1
			c-0.1-0.1-0.3-0.2-0.4-0.2C9.3,16.8,9,16.5,8.9,16c0-0.1-0.1-0.2-0.1-0.3c-0.1,0.1-0.1,0.2-0.1,0.3c0,4,0,8,0,12
			c0,0.4,0.1,0.5,0.5,0.5c2.9,0,5.9,0,8.8,0c0.1,0,0.2,0,0.3-0.1c-0.3-0.2-0.5-0.4-0.8-0.4c-0.4-0.1-0.6-0.3-0.6-0.7
			c0-0.2,0-0.4-0.1-0.6c-0.3-0.6-0.6-1.2-0.9-1.9c-0.1-0.1-0.1-0.3-0.2-0.5c2,0.8,3.9,1.5,5.8,2.2c0,0,0.1-0.1,0.1-0.1
			c-0.1-0.2-0.2-0.4-0.2-0.6c-0.1-0.5-0.1-1-0.2-1.4c0,0,0-0.1,0-0.1c0.2-0.4,0.5-0.6,1-0.7c0.4-0.1,0.8-0.3,1.1-0.5
			c0.4-0.2,0.7-0.4,1.1-0.5c0.4-0.1,0.6-0.3,0.6-0.7c-0.2,0.1-0.3,0.1-0.3,0.1c-0.3,0.3-1.1,0.3-1.3-0.1
			C23.2,21.6,23,21.4,22.8,21.2z M40.7,13.2c-0.1,0.1-0.1,0.2-0.1,0.4c0,0.9,0,1.8,0,2.7c0,0.1,0.2,0.3,0.2,0.3c0.5,0,1,0,1.6,0
			c0-0.2,0-0.2,0-0.3c-0.7-2.7-1.3-5.5-2-8.2c0-0.1-0.3-0.3-0.4-0.3c-0.5,0-0.9,0-1.4,0c-0.4,0-0.5,0.1-0.6,0.5
			c-0.6,2.6-1.3,5.2-1.9,7.8c0,0.2,0,0.3-0.1,0.5c0.5,0,0.9,0,1.4,0c0.4,0,0.5-0.1,0.5-0.5c0-0.7,0-1.4,0-2.2c0-0.2-0.1-0.5-0.1-0.8
			c1.3-1,1.4-1,2.8-0.1C40.6,13.1,40.6,13.2,40.7,13.2z M42.7,12.2c0,1.3,0,2.6,0,3.9c0,0.4,0.1,0.5,0.5,0.5c1,0,1.9,0,2.9,0
			c1.3,0,1.1,0.2,1.1-1.2c0-0.3-0.1-0.4-0.4-0.4c-0.6,0-1.2,0-1.7,0c-0.4,0-0.5-0.1-0.5-0.5c0-1.8,0-3.6,0-5.4c0-1.3,0-1.3-1.3-1.3
			c-0.4,0-0.5,0.1-0.5,0.5C42.7,9.6,42.7,10.9,42.7,12.2z M49.4,12.2c0-1.1,0-2.1,0-3.2c0-1.2,0-1.1-1.2-1.2c-0.5,0-0.7,0.1-0.6,0.6
			c0,2.3,0,4.6,0,6.9c0,1.5-0.2,1.3,1.3,1.3c0.4,0,0.5-0.1,0.5-0.5C49.4,14.8,49.4,13.5,49.4,12.2z M40.9,19.3
			C41,19.3,41,19.3,40.9,19.3c0.1,0.1,0.2,0.1,0.2,0.2c0.3,0.6,0.6,1.2,0.8,1.8c0.2,0.4,0.5,0.3,0.7,0.3c0.1,0,0.2-0.3,0.3-0.5
			c0-1.1,0-2.3,0-3.4c0-0.3-0.1-0.5-0.5-0.5c-0.4,0-0.4,0.2-0.4,0.5c0,0.6,0,1.1,0,1.7c-0.4-0.6-0.6-1.3-0.9-1.9
			c-0.2-0.4-0.6-0.3-0.9-0.2c-0.1,0-0.3,0.3-0.3,0.5c0,1.2,0,2.3,0,3.5c0,0.3,0.1,0.5,0.5,0.5c0.3,0,0.5-0.1,0.5-0.5
			C40.9,20.6,40.9,19.9,40.9,19.3z M39.6,25.6C39.6,25.6,39.5,25.6,39.6,25.6c-0.1-0.1-0.1-0.3-0.2-0.4c-0.3-0.9-0.6-1.8-0.9-2.7
			c-0.2-0.5-0.5-0.3-0.8-0.3c-0.1,0-0.3,0.3-0.3,0.5c0,1.5,0,2.9,0,4.4c0,0.2-0.1,0.5,0.3,0.5c0.4,0,0.3-0.3,0.3-0.5
			c0-0.6,0-1.2,0-1.8c0-0.6,0-1.2,0-1.7c0.5,1.2,1,2.5,1.4,3.7c0.1,0.3,0.3,0.4,0.6,0.3c0.1-0.1,0.3-0.3,0.3-0.5c0-1.5,0-2.9,0-4.4
			c0-0.2,0.1-0.5-0.3-0.5c-0.4,0-0.4,0.3-0.4,0.5C39.6,23.7,39.6,24.6,39.6,25.6z M33,11.5c0.1,1,0.1,1-0.8,1c-0.2,0-0.3,0-0.5,0
			c-0.4,0-0.4,0.2-0.4,0.5c0,0.3,0,0.5,0.4,0.5c1.2,0,2.5,0,3.7,0c0.4,0,0.4-0.2,0.4-0.5c0-0.3,0-0.5-0.4-0.5c-0.4,0-0.7,0-1.1,0
			c-0.4,0-0.4-0.2-0.4-0.5c0-0.3,0-0.6,0.4-0.5c0.3,0,0.7,0,1,0c0.4,0,0.4-0.2,0.4-0.5c0-0.3,0-0.5-0.4-0.5c-1.2,0-2.4,0-3.6,0
			c-0.3,0-0.4,0.2-0.4,0.5c0,0.3,0,0.5,0.4,0.5C32.1,11.5,32.5,11.5,33,11.5z M39.7,21.5c-0.2-0.5-0.4-1-0.6-1.4
			c-0.1-0.3-0.1-0.4,0.1-0.7c0.7-0.7,0.3-2-0.6-2.2c-0.5-0.1-0.9-0.1-1.4-0.1c-0.3,0-0.4,0.1-0.4,0.4c0,1.2,0,2.4,0,3.6
			c0,0.4,0.2,0.4,0.5,0.4c0.3,0,0.5-0.1,0.4-0.4c0-0.3,0-0.6,0-0.9c0-0.1,0.1-0.3,0.1-0.4c0.1,0.1,0.2,0.2,0.3,0.3
			c0.1,0.2,0.2,0.5,0.3,0.8C38.8,21.7,38.8,21.7,39.7,21.5z M33.6,19.4c0,0.5,0,0.9,0.1,1.3c0.1,0.7,0.6,1,1.4,1
			c0.8,0,1.3-0.3,1.4-1c0.1-0.8,0.1-1.7,0-2.5c-0.1-0.6-0.6-1-1.3-1c-0.8,0-1.3,0.3-1.4,0.9C33.6,18.5,33.6,19,33.6,19.4z
			 M49.4,27.5c-0.2-0.7-0.5-1.4-0.7-2.1c-0.1-0.2-0.1-0.4,0.2-0.6c0.5-0.4,0.6-1,0.5-1.6c-0.2-0.6-0.6-0.9-1.3-1c-0.4,0-0.7,0-1.1,0
			c-0.3,0-0.4,0.1-0.4,0.4c0,1.5,0,3,0,4.5c0,0.2,0,0.4,0.3,0.4c0.3,0,0.4-0.2,0.4-0.5c0-0.5,0-1.1,0-1.6c0-0.1,0.1-0.4,0.2-0.4
			c0.2-0.1,0.4,0,0.5,0.3c0.2,0.6,0.4,1.1,0.6,1.7C48.7,27.6,48.9,27.7,49.4,27.5z M44.4,19.8c0.2,0,0.4,0,0.6,0
			c0.3,0,0.4-0.1,0.4-0.4c0-0.5-0.3-0.5-0.6-0.5c-0.3,0-0.6,0-0.5-0.4c0-0.5,0.3-0.4,0.6-0.4c0.1,0,0.3,0,0.4,0
			c0.3,0,0.4-0.1,0.4-0.4c0-0.3-0.1-0.5-0.4-0.4c-0.5,0-1,0-1.5,0c-0.3,0-0.5,0.1-0.5,0.5c0,1.2,0,2.4,0,3.5c0,0.4,0.1,0.5,0.5,0.5
			c0.5,0,1,0,1.5,0c0.3,0,0.4-0.1,0.5-0.5c0-0.4-0.2-0.4-0.5-0.4c-0.1,0-0.3,0-0.4,0c-0.6,0-0.7,0-0.6-0.7
			C44.3,20,44.4,19.9,44.4,19.8z M34.9,9.2c-0.9,0.2-0.9,0.1-1-0.7c0-0.1-0.2-0.3-0.3-0.3C33.1,8.1,33,8.4,33,8.8
			c0,0.3,0,0.5-0.4,0.5c-0.4,0-0.4-0.2-0.4-0.5c0-0.2,0-0.4,0-0.5c0-0.3-0.1-0.4-0.4-0.4c-0.3,0-0.4,0.1-0.4,0.4c0,0.5,0,1.1,0,1.6
			c0,0.3,0.1,0.4,0.4,0.4c1.2,0,2.4,0,3.6,0c0.3,0,0.4-0.1,0.4-0.4c0-0.6,0-1.1,0-1.7c0-0.3-0.1-0.4-0.4-0.4c-0.3,0-0.5,0.1-0.4,0.4
			C34.9,8.6,34.9,8.9,34.9,9.2z M44.4,22.8c0.5,0,1,0,1.4,0c0.1,0,0.3-0.2,0.4-0.3c-0.1-0.1-0.2-0.3-0.4-0.3c-0.6,0-1.2,0-1.8,0
			c-0.3,0-0.4,0.1-0.4,0.4c0,1.5,0,3.1,0,4.6c0,0.3,0.1,0.4,0.4,0.4c0.6,0,1.2,0,1.8,0c0.1,0,0.4-0.2,0.4-0.3
			c0.1-0.3-0.2-0.3-0.4-0.3c-0.4,0-0.8,0-1.1,0c-0.1,0-0.3-0.1-0.3-0.2c0-0.5,0-1,0-1.6c0.4,0,0.7,0,1,0c0.1,0,0.3-0.2,0.3-0.3
			c0-0.1-0.2-0.3-0.3-0.3c-0.2,0-0.5,0-0.7,0c-0.2,0-0.4-0.1-0.4-0.3C44.4,23.7,44.4,23.3,44.4,22.8z M31.8,24.8
			c0.1-0.5,0.1-1,0.3-1.6c0.1-0.2,0.4-0.4,0.6-0.4c0.2,0,0.4,0.3,0.6,0.5c0.1,0.1,0,0.3,0.1,0.4c0.1,0.1,0.3,0.2,0.4,0.3
			c0.1-0.1,0.2-0.3,0.2-0.4c-0.1-0.8-0.5-1.3-1.2-1.4c-0.7-0.1-1.3,0.3-1.5,1.1c-0.3,1.1-0.3,2.1,0,3.2c0.2,0.8,0.9,1.3,1.6,1.1
			c0.7-0.1,1.2-0.8,1.3-1.6c0-0.3-0.1-0.3-0.4-0.3c-0.5,0-0.3,0.4-0.4,0.6c-0.1,0.4-0.2,0.7-0.7,0.7c-0.5,0-0.7-0.3-0.8-0.7
			C31.9,25.9,31.9,25.4,31.8,24.8z M32.2,18.1c0.3,0,0.6,0,0.9,0c0.3,0,0.4-0.1,0.4-0.4c0-0.3-0.1-0.5-0.4-0.4c-0.5,0-1,0-1.5,0
			c-0.3,0-0.4,0.1-0.4,0.4c0,1.2,0,2.4,0,3.6c0,0.3,0.1,0.5,0.5,0.5c0.3,0,0.5-0.1,0.5-0.5c0-0.5,0-0.9,0-1.3c0.3-0.3,1,0.2,1-0.5
			c0-0.8-0.7-0.3-1-0.6C32.2,18.6,32.2,18.3,32.2,18.1z M35.2,22.8c0.5,0,1,0,1.5,0c0.1,0,0.3-0.2,0.4-0.3c-0.1-0.1-0.2-0.3-0.4-0.3
			c-0.6,0-1.2,0-1.8,0c-0.1,0-0.3,0.2-0.3,0.3c0,1.5,0,3.1,0,4.6c0,0.3,0.1,0.4,0.4,0.4c0.6,0,1.2,0,1.8,0c0.2,0,0.4,0,0.5-0.3
			c0-0.4-0.2-0.3-0.5-0.3c-0.5,0-0.9,0-1.4,0c0-0.6,0-1.1,0-1.6c0-0.1,0.2-0.2,0.3-0.2c0.2,0,0.5,0,0.7,0c0.1,0,0.2-0.2,0.3-0.3
			c-0.1-0.1-0.2-0.2-0.3-0.3c-0.2,0-0.5,0-0.7,0c-0.1,0-0.3-0.2-0.3-0.3C35.1,23.7,35.2,23.3,35.2,22.8z M46.1,17.3
			c0.1,0.2,0.1,0.3,0.2,0.4c0.5,1.1,1.2,2.2,1,3.6c-0.1,0.3,0.2,0.3,0.5,0.3c0.3,0,0.6,0,0.5-0.4c-0.2-1.4,0.5-2.5,1-3.6
			c0.1-0.1,0.1-0.3,0.1-0.4c-0.8-0.2-0.9-0.1-1.2,0.6c-0.1,0.3-0.2,0.6-0.4,1c-0.2-0.4-0.3-0.7-0.4-1C47,17.1,46.9,17.1,46.1,17.3z
			 M33.9,15.7c0.4,0,0.9,0,1.3,0c0.4,0,0.5-0.1,0.5-0.5c0-0.4-0.1-0.5-0.5-0.5c-0.8,0-1.6,0-2.5,0c-0.5,0-0.7-0.1-0.6-0.6
			c0-0.3-0.1-0.4-0.4-0.4c-0.3,0-0.4,0-0.4,0.4c0,0.7,0,1.4,0,2.2c0,0.1,0.2,0.3,0.3,0.3c0.3,0.1,0.6-0.1,0.5-0.4
			c-0.1-0.4,0.1-0.5,0.5-0.5C33.1,15.8,33.5,15.7,33.9,15.7z M42.2,22.8c0.3,0,0.5,0,0.7,0c0.2,0,0.4-0.2,0.4-0.3
			c0.1-0.3-0.2-0.3-0.4-0.3c-0.7,0-1.3,0-2,0c-0.1,0-0.4,0.2-0.4,0.3c-0.1,0.3,0.2,0.3,0.4,0.3c0.6-0.1,0.6,0.2,0.6,0.7
			c0,1.2,0,2.4,0,3.6c0,0.4,0.2,0.5,0.5,0.4c0.1,0,0.2-0.3,0.2-0.5C42.3,25.7,42.2,24.3,42.2,22.8z M40,14.8c0-0.3-0.1-0.4-0.4-0.4
			c-0.3,0-0.4,0.1-0.4,0.4c0,0.3,0.1,0.4,0.4,0.4C39.9,15.2,40,15.1,40,14.8z M38.6,14.4c-0.1,0.2-0.2,0.3-0.2,0.5
			c-0.1,0.3,0.1,0.4,0.4,0.4c0.3,0,0.3-0.2,0.4-0.4C39.1,14.6,39,14.4,38.6,14.4z M38.7,13.5c-0.3,0-0.4,0.1-0.4,0.4
			c0,0.3,0.1,0.4,0.4,0.4c0.3,0,0.4-0.1,0.4-0.4C39.1,13.6,39,13.5,38.7,13.5z M39.9,14.1c0.1-0.5-0.1-0.6-0.3-0.6
			c-0.3,0-0.4,0.1-0.4,0.4c0,0.3,0.1,0.4,0.4,0.4C39.8,14.2,39.9,14.1,39.9,14.1z"/>
		<path class="st0" d="M30.2,29.2c-0.2-0.7-0.2-0.8,0.6-0.8c2.1,0,4.3,0,6.4,0c0.7,0,0.7,0.1,0.7,0.8C35.3,29.2,32.8,29.2,30.2,29.2
			z"/>
		<path class="st0" d="M22.8,21.2c0.2,0.2,0.4,0.3,0.5,0.5c0.3,0.4,1,0.4,1.3,0.1c0.1-0.1,0.2-0.1,0.3-0.1c-0.1,0.5-0.3,0.6-0.6,0.7
			c-0.4,0.1-0.8,0.3-1.1,0.5c-0.4,0.2-0.7,0.4-1.1,0.5c-0.5,0.1-0.8,0.3-1,0.7c0,0,0,0.1,0,0.1c0.1,0.5,0.1,1,0.2,1.4
			c0,0.2,0.2,0.4,0.2,0.6c0,0-0.1,0.1-0.1,0.1c-1.9-0.7-3.8-1.4-5.8-2.2c0.1,0.3,0.1,0.4,0.2,0.5c0.3,0.6,0.6,1.2,0.9,1.9
			c0.1,0.2,0.1,0.4,0.1,0.6c0,0.4,0.2,0.6,0.6,0.7c0.3,0,0.5,0.2,0.8,0.4c-0.1,0-0.2,0.1-0.3,0.1c-2.9,0-5.9,0-8.8,0
			c-0.4,0-0.5-0.1-0.5-0.5c0-4,0-8,0-12c0-0.1,0-0.2,0.1-0.3c0,0.1,0.1,0.2,0.1,0.3c0.1,0.5,0.3,0.8,0.9,0.7c0.1,0,0.3,0.1,0.4,0.2
			c0.2,0.3,0.5,0.7,0.7,1.1c0.1-0.5,0.5-0.8,0-1.2c0.6-0.3,1.2,0.1,1.5,0.9c-0.2,0.1-0.5,0.1-0.7,0.3c-0.2,0.2-0.3,0.5-0.4,0.7
			c0,0.1,0.3,0.3,0.5,0.4c0.3,0.2,0.6,0.3,0.9,0.4c0.1,0,0.2,0,0.3,0c-0.1-0.1-0.1-0.3-0.2-0.3c-0.2-0.1-0.4-0.1-0.6-0.2
			c-0.2-0.1-0.4-0.3-0.5-0.5c0-0.2,0.2-0.5,0.3-0.5c0.2-0.1,0.5,0,0.7,0.2c0.9,0.7,1,1.7,1.2,2.8c0.1,0.3,0.3,0.6,0.5,0.9
			c0.4-1,0.3-1.8-0.3-2.6c-0.2-0.2-0.3-0.5-0.1-0.9c0.3-0.6,0.4-1.4,0.6-2.1c0,0,0.2,0,0.3,0c-0.2-0.6,0.4-0.5,0.7-0.7
			c0.4-0.3,0.4-0.4,0.1-0.8c-0.2-0.2-0.5-0.5-0.1-0.8c0.1-0.1,0-0.3,0-0.4c-0.2-0.4-0.2-0.8,0.1-1.3c0.4-0.6,0.9-0.3,1.4-0.3
			c0.2,0,0.5,0.4,0.6,0.7c0.1,0.7,0.5,0.8,1,0.7c0.1,0,0.1,0,0.2,0c0,0,0,0,0.1-0.1c0-0.3,0-0.6-0.1-1c-0.1-0.9,0.2-1.1,1-0.9
			c0.3,0,0.6,0.1,0.8,0.1c0.5,0,0.7,0.2,0.7,0.6c0.1,0.5,0.1,1,0.1,1.5c0,0.4,0.1,0.7,0.5,0.8c0.2,0.1,0.3,0.2,0.4,0.3
			c0.1,0.2,0.2,0.4,0.2,0.6c0,0.3-0.2,0.5-0.6,0.5c-1-0.1-1.9,0.2-2.8,0.5c-0.3,0.1-0.6,0.6-0.9,0.9c0,0,0.1,0.1,0.1,0.1
			c0.2,0,0.4-0.1,0.5,0c0.3,0,0.5,0.1,0.8,0.1c-0.2,0.2-0.3,0.5-0.5,0.6c-0.2,0.2-0.4,0.2-0.6,0.3c0.1,0.5,0.5,0.6,0.9,0.6
			c0.5,0,1-0.1,1.3-0.6c0-0.1,0.1-0.1,0.1-0.2c0.3-0.8,0.8-1.1,1.6-1c0.1,0,0.3,0.1,0.4,0.2c0.5,0.8,1,1.6,1.6,2.4
			c0.3,0.4,0.1,0.6-0.3,0.8c-0.4,0.1-0.8,0.2-1.2,0.4C23.1,21,23,21.1,22.8,21.2z M15.9,28.1c-0.9-0.6-1.7-1.2-2.6-1.8
			C13.8,27.3,14.9,27.7,15.9,28.1z M12.3,18.6c0.1,0.1,0.1,0.1,0.2,0.2c0.1-0.1,0.2-0.3,0.3-0.4c-0.1-0.1-0.2-0.1-0.2-0.2
			C12.5,18.3,12.4,18.5,12.3,18.6z M18.4,18.3c0-0.1,0-0.1,0-0.2c-0.2,0-0.5,0-0.7,0c0,0.1,0,0.1,0,0.2
			C17.9,18.3,18.2,18.3,18.4,18.3z"/>
		<path class="st0" d="M23.9,25.7c-0.7-0.2-1.3-0.5-1.8-1.1c-0.3-0.4-0.2-0.7,0.3-0.7c0.3,0,0.6,0.1,1,0.1c0.4,0,0.7,0,1-0.4
			c0.3-0.3,0.8-0.4,1.3-0.7c0-0.4-0.1-0.9-0.1-1.4c0,0,0-0.1,0-0.1c0.1-1.3-0.3-2.5-0.5-3.7c-0.2-1.1-0.1-2.3,0.4-3.4
			c0.1-0.1,0-0.4-0.1-0.6c-0.7-1.6-1.5-3.2-2.3-4.8c0.4-0.2,0.7-0.3,1-0.4c0.3-0.1,0.4-0.3,0.3-0.6C24.1,7.3,24.3,7,25,7
			c1.4,0,2.9,0,4.3,0c0.4,0,0.5,0.1,0.5,0.5c0,6.8,0,13.6,0,20.5c0,0.3-0.1,0.5-0.5,0.5c-3,0-6,0-9-0.1c-0.1,0-0.1,0-0.3-0.1
			c0.2-0.1,0.3-0.2,0.4-0.2c0.6-0.3,1.2-0.7,1.5-1.4c0.1-0.2,0.3-0.3,0.5-0.4C22.9,26.1,23.4,25.9,23.9,25.7
			c0.3-0.2,0.6-0.4,0.8-0.6c0.1-0.1,0-0.2,0-0.4c-0.1,0-0.3,0-0.3,0.1C24.2,25.1,24,25.4,23.9,25.7z"/>
		<path class="st0" d="M40.7,13.2c-0.1-0.1-0.1-0.1-0.1-0.1c-1.4-0.9-1.5-0.9-2.8,0.1c0,0.3,0.1,0.5,0.1,0.8c0,0.7,0,1.4,0,2.2
			c0,0.4-0.1,0.5-0.5,0.5c-0.4,0-0.9,0-1.4,0c0-0.2,0-0.4,0.1-0.5c0.6-2.6,1.3-5.2,1.9-7.8c0.1-0.4,0.2-0.5,0.6-0.5
			c0.5,0,0.9,0,1.4,0c0.1,0,0.4,0.2,0.4,0.3c0.7,2.7,1.3,5.5,2,8.2c0,0.1,0,0.2,0,0.3c-0.5,0-1.1,0-1.6,0c-0.1,0-0.2-0.2-0.2-0.3
			c0-0.9,0-1.8,0-2.7C40.5,13.5,40.6,13.4,40.7,13.2z"/>
		<path class="st0" d="M42.7,12.2c0-1.3,0-2.6,0-3.8c0-0.4,0.1-0.5,0.5-0.5c1.3,0,1.3,0,1.3,1.3c0,1.8,0,3.6,0,5.4
			c0,0.4,0.1,0.6,0.5,0.5c0.6,0,1.1,0,1.7,0c0.3,0,0.4,0.1,0.4,0.4c0,1.4,0.1,1.2-1.1,1.2c-1,0-1.9,0-2.9,0c-0.4,0-0.5-0.1-0.5-0.5
			C42.7,14.8,42.7,13.5,42.7,12.2z"/>
		<path class="st0" d="M49.4,12.2c0,1.3,0,2.6,0,3.9c0,0.4-0.1,0.5-0.5,0.5c-1.5,0-1.3,0.2-1.3-1.3c0-2.3,0-4.6,0-6.9
			c0-0.5,0.1-0.6,0.6-0.6c1.2,0,1.2,0,1.2,1.2C49.4,10,49.4,11.1,49.4,12.2z"/>
		<path class="st0" d="M40.9,19.3c0,0.6,0,1.2,0,1.8c0,0.3-0.1,0.5-0.5,0.5c-0.3,0-0.5-0.1-0.5-0.5c0-1.2,0-2.3,0-3.5
			c0-0.2,0.2-0.5,0.3-0.5c0.3,0,0.7-0.2,0.9,0.2c0.3,0.6,0.6,1.3,0.9,1.9c0-0.6,0-1.1,0-1.7c0-0.3,0-0.5,0.4-0.5
			c0.4,0,0.5,0.2,0.5,0.5c0,1.1,0,2.3,0,3.4c0,0.2-0.1,0.4-0.3,0.5c-0.3,0.1-0.6,0.1-0.7-0.3c-0.3-0.6-0.5-1.2-0.8-1.8
			C41.1,19.5,41.1,19.4,40.9,19.3C41,19.3,41,19.3,40.9,19.3z"/>
		<path class="st0" d="M39.6,25.6c0-1,0-1.9,0-2.9c0-0.2,0-0.5,0.4-0.5c0.4,0,0.3,0.3,0.3,0.5c0,1.5,0,2.9,0,4.4
			c0,0.2-0.1,0.4-0.3,0.5c-0.3,0.1-0.5,0-0.6-0.3C39,26,38.6,24.7,38,23.5c0,0.6,0,1.2,0,1.7c0,0.6,0,1.2,0,1.8
			c0,0.2,0.1,0.5-0.3,0.5c-0.4,0-0.3-0.3-0.3-0.5c0-1.5,0-2.9,0-4.4c0-0.2,0.2-0.4,0.3-0.5c0.3,0,0.7-0.2,0.8,0.3
			c0.3,0.9,0.6,1.8,0.9,2.7C39.4,25.3,39.5,25.5,39.6,25.6C39.5,25.6,39.6,25.6,39.6,25.6z"/>
		<path class="st0" d="M33,11.5c-0.4,0-0.8,0-1.3,0c-0.4,0-0.4-0.2-0.4-0.5c0-0.3,0-0.5,0.4-0.5c1.2,0,2.4,0,3.6,0
			c0.4,0,0.4,0.2,0.4,0.5c0,0.3,0,0.5-0.4,0.5c-0.3,0-0.7,0-1,0c-0.4,0-0.4,0.2-0.4,0.5c0,0.3,0,0.5,0.4,0.5c0.4,0,0.7,0,1.1,0
			c0.4,0,0.4,0.2,0.4,0.5c0,0.3,0,0.5-0.4,0.5c-1.2,0-2.5,0-3.7,0c-0.4,0-0.4-0.2-0.4-0.5c0-0.3,0-0.5,0.4-0.5c0.2,0,0.3,0,0.5,0
			C33.1,12.6,33.1,12.6,33,11.5z"/>
		<path class="st0" d="M39.7,21.5c-0.9,0.2-0.9,0.2-1.2-0.6c-0.1-0.3-0.2-0.5-0.3-0.8c-0.1-0.1-0.2-0.2-0.3-0.3
			c0,0.1-0.1,0.3-0.1,0.4c0,0.3,0,0.6,0,0.9c0,0.3-0.1,0.4-0.4,0.4c-0.3,0-0.5,0-0.5-0.4c0-1.2,0-2.4,0-3.6c0-0.3,0.1-0.4,0.4-0.4
			c0.5,0,1,0,1.4,0.1c1,0.2,1.3,1.5,0.6,2.2c-0.2,0.2-0.2,0.4-0.1,0.7C39.3,20.6,39.5,21,39.7,21.5z M37.8,19.1
			c0.3-0.1,0.6-0.2,0.8-0.3c0.1-0.1,0.1-0.5,0-0.6c-0.2-0.2-0.4-0.2-0.8-0.3C37.8,18.4,37.8,18.7,37.8,19.1z"/>
		<path class="st0" d="M33.6,19.4c0-0.4,0-0.9,0.1-1.3c0.1-0.7,0.6-0.9,1.4-0.9c0.7,0,1.2,0.3,1.3,1c0.1,0.8,0.1,1.7,0,2.5
			c-0.1,0.7-0.6,1-1.4,1c-0.8,0-1.2-0.3-1.4-1C33.6,20.2,33.6,19.8,33.6,19.4z M35.5,19.4c0-0.3,0-0.7,0-1c0-0.2-0.3-0.4-0.4-0.4
			c-0.2,0-0.4,0.2-0.5,0.3c0,0.7,0,1.4,0,2.1c0,0.1,0.3,0.4,0.5,0.4c0.1,0,0.4-0.2,0.4-0.4C35.6,20.1,35.5,19.7,35.5,19.4z"/>
		<path class="st0" d="M49.4,27.5c-0.5,0.2-0.7,0.1-0.8-0.3c-0.2-0.6-0.4-1.1-0.6-1.7c-0.1-0.3-0.3-0.4-0.5-0.3
			c-0.1,0.1-0.2,0.3-0.2,0.4c0,0.5,0,1,0,1.6c0,0.2,0,0.5-0.4,0.5c-0.3,0-0.3-0.2-0.3-0.4c0-1.5,0-3,0-4.5c0-0.3,0.1-0.4,0.4-0.4
			c0.4,0,0.7,0,1.1,0c0.7,0,1.1,0.4,1.3,1c0.2,0.6,0.1,1.2-0.5,1.6c-0.2,0.2-0.2,0.3-0.2,0.6C48.9,26,49.1,26.8,49.4,27.5z
			 M47.2,24.5c0.5,0,1,0.2,1.3-0.3c0.1-0.3,0.1-0.7,0-1c-0.3-0.5-0.8-0.3-1.3-0.3C47.2,23.4,47.2,23.9,47.2,24.5z"/>
		<path class="st0" d="M44.4,19.8c0,0.2,0,0.2,0,0.3c0,0.7,0,0.7,0.6,0.7c0.1,0,0.3,0,0.4,0c0.3,0,0.5,0,0.5,0.4
			c0,0.3-0.1,0.5-0.5,0.5c-0.5,0-1,0-1.5,0c-0.3,0-0.5-0.1-0.5-0.5c0-1.2,0-2.4,0-3.5c0-0.3,0.1-0.5,0.5-0.5c0.5,0,1,0,1.5,0
			c0.3,0,0.4,0.1,0.4,0.4c0,0.3-0.1,0.4-0.4,0.4c-0.1,0-0.3,0-0.4,0c-0.3,0-0.6-0.1-0.6,0.4c0,0.5,0.2,0.5,0.5,0.4
			c0.3,0,0.6,0,0.6,0.5c0,0.3-0.1,0.4-0.4,0.4C44.8,19.8,44.6,19.8,44.4,19.8z"/>
		<path class="st0" d="M34.9,9.2c0-0.3,0-0.7,0-1c0-0.3,0.1-0.4,0.4-0.4c0.3,0,0.4,0.1,0.4,0.4c0,0.6,0,1.1,0,1.7
			c0,0.3-0.1,0.4-0.4,0.4c-1.2,0-2.4,0-3.6,0c-0.3,0-0.4-0.1-0.4-0.4c0-0.5,0-1.1,0-1.6c0-0.3,0.2-0.4,0.4-0.4
			c0.3,0,0.4,0.1,0.4,0.4c0,0.2,0,0.4,0,0.5c0,0.3,0,0.5,0.4,0.5c0.4,0,0.5-0.2,0.4-0.5c0-0.4,0.1-0.7,0.5-0.6
			c0.1,0,0.3,0.2,0.3,0.3C34,9.4,34,9.4,34.9,9.2z"/>
		<path class="st0" d="M44.4,22.8c0,0.5,0,0.9,0,1.3c0,0.3,0.1,0.3,0.4,0.3c0.2,0,0.5,0,0.7,0c0.1,0,0.3,0.2,0.3,0.3
			c0,0.1-0.2,0.3-0.3,0.3c-0.3,0-0.6,0-1,0c0,0.6,0,1.1,0,1.6c0,0.1,0.2,0.2,0.3,0.2c0.4,0,0.8,0,1.1,0c0.2,0,0.5,0,0.4,0.3
			c0,0.1-0.2,0.3-0.4,0.3c-0.6,0-1.2,0-1.8,0c-0.3,0-0.4-0.1-0.4-0.4c0-1.5,0-3.1,0-4.6c0-0.3,0.1-0.4,0.4-0.4c0.6,0,1.2,0,1.8,0
			c0.1,0,0.2,0.2,0.4,0.3c-0.1,0.1-0.2,0.3-0.4,0.3C45.4,22.8,44.9,22.8,44.4,22.8z"/>
		<path class="st0" d="M31.8,24.8c0.1,0.6,0.1,1.1,0.2,1.6c0.1,0.4,0.3,0.7,0.8,0.7c0.4,0,0.6-0.3,0.7-0.7c0.1-0.2-0.1-0.6,0.4-0.6
			c0.2,0,0.4,0.1,0.4,0.3c0,0.8-0.5,1.5-1.3,1.6c-0.7,0.1-1.4-0.3-1.6-1.1c-0.3-1.1-0.3-2.1,0-3.2c0.2-0.8,0.8-1.2,1.5-1.1
			c0.7,0.1,1.1,0.6,1.2,1.4c0,0.1-0.1,0.3-0.2,0.4c-0.2-0.1-0.3-0.1-0.4-0.3c-0.1-0.1,0-0.3-0.1-0.4c-0.2-0.2-0.4-0.5-0.6-0.5
			c-0.2,0-0.6,0.2-0.6,0.4C31.9,23.7,31.9,24.3,31.8,24.8z"/>
		<path class="st0" d="M32.2,18.1c0,0.3,0,0.5,0,0.7c0.3,0.3,1-0.3,1,0.6c0,0.8-0.7,0.2-1,0.5c0,0.4,0,0.8,0,1.3
			c0,0.4-0.2,0.5-0.5,0.5c-0.3,0-0.5-0.1-0.5-0.5c0-1.2,0-2.4,0-3.6c0-0.3,0.1-0.4,0.4-0.4c0.5,0,1,0,1.5,0c0.3,0,0.4,0.1,0.4,0.4
			c0,0.3-0.1,0.4-0.4,0.4C32.8,18,32.5,18.1,32.2,18.1z"/>
		<path class="st0" d="M35.2,22.8c0,0.5,0,0.9,0,1.4c0,0.1,0.2,0.3,0.3,0.3c0.2,0,0.5,0,0.7,0c0.1,0,0.2,0.2,0.3,0.3
			c-0.1,0.1-0.2,0.3-0.3,0.3c-0.2,0.1-0.5,0-0.7,0c-0.1,0-0.3,0.2-0.3,0.2c0,0.5,0,1,0,1.6c0.5,0,1,0,1.4,0c0.2,0,0.5,0,0.5,0.3
			c0,0.3-0.2,0.3-0.5,0.3c-0.6,0-1.2,0-1.8,0c-0.3,0-0.4-0.1-0.4-0.4c0-1.5,0-3.1,0-4.6c0-0.1,0.2-0.3,0.3-0.3c0.6,0,1.2,0,1.8,0
			c0.1,0,0.2,0.2,0.4,0.3c-0.1,0.1-0.2,0.3-0.4,0.3C36.2,22.8,35.7,22.8,35.2,22.8z"/>
		<path class="st0" d="M46.1,17.3c0.8-0.2,0.9-0.2,1.2,0.5c0.1,0.3,0.3,0.6,0.4,1c0.2-0.4,0.3-0.7,0.4-1c0.3-0.7,0.3-0.8,1.2-0.6
			c0,0.1-0.1,0.3-0.1,0.4c-0.5,1.2-1.2,2.3-1,3.6c0.1,0.4-0.2,0.4-0.5,0.4c-0.2,0-0.5,0-0.5-0.3c0.2-1.3-0.4-2.4-1-3.6
			C46.2,17.6,46.2,17.4,46.1,17.3z"/>
		<path class="st0" d="M33.9,15.7c-0.4,0-0.8,0-1.2,0c-0.4,0-0.6,0.1-0.5,0.5c0.1,0.4-0.2,0.5-0.5,0.4c-0.1,0-0.3-0.2-0.3-0.3
			c0-0.7,0-1.4,0-2.2c0-0.3,0.2-0.4,0.4-0.4c0.3,0,0.5,0.1,0.4,0.4c-0.1,0.5,0.2,0.6,0.6,0.6c0.8,0,1.6,0,2.5,0
			c0.4,0,0.5,0.1,0.5,0.5c0,0.4-0.1,0.5-0.5,0.5C34.8,15.7,34.4,15.7,33.9,15.7z"/>
		<path class="st0" d="M42.2,22.8c0,1.5,0,2.9,0,4.3c0,0.2-0.1,0.4-0.2,0.5c-0.3,0.1-0.5-0.1-0.5-0.4c0-1.2,0-2.4,0-3.6
			c0-0.5-0.1-0.8-0.6-0.7c-0.2,0-0.5,0-0.4-0.3c0-0.1,0.2-0.3,0.4-0.3c0.7,0,1.3,0,2,0c0.2,0,0.5,0,0.4,0.3c0,0.1-0.2,0.2-0.4,0.3
			C42.7,22.9,42.5,22.8,42.2,22.8z"/>
		<path class="st0" d="M40,14.8c0,0.3-0.1,0.4-0.4,0.4c-0.3,0-0.4-0.2-0.4-0.4c0-0.3,0.1-0.4,0.4-0.4C39.9,14.4,40,14.5,40,14.8z"/>
		<path class="st0" d="M38.6,14.4c0.5,0,0.5,0.2,0.5,0.5c0,0.2-0.1,0.4-0.4,0.4c-0.3,0-0.5-0.1-0.4-0.4
			C38.4,14.7,38.5,14.5,38.6,14.4z"/>
		<path class="st0" d="M38.7,13.5c0.3,0,0.4,0.1,0.4,0.4c0,0.3-0.1,0.4-0.4,0.4c-0.3,0-0.4-0.1-0.4-0.4
			C38.3,13.6,38.4,13.5,38.7,13.5z"/>
		<path class="st0" d="M39.9,14.1c0,0-0.2,0.1-0.3,0.2c-0.3,0.1-0.4-0.1-0.4-0.4c0-0.3,0.1-0.4,0.4-0.4C39.9,13.5,40,13.6,39.9,14.1
			z"/>
		<path d="M15.9,28.1c-1-0.4-2-0.7-2.6-1.8C14.1,26.9,15,27.5,15.9,28.1z"/>
		<path d="M12.3,18.6c0.1-0.1,0.2-0.3,0.3-0.4c0.1,0.1,0.2,0.1,0.2,0.2c-0.1,0.1-0.2,0.3-0.3,0.4C12.4,18.7,12.4,18.7,12.3,18.6z"/>
		<path d="M18.4,18.3c-0.2,0-0.4,0-0.7,0c0-0.1,0-0.1,0-0.2c0.2,0,0.5,0,0.7,0C18.4,18.1,18.4,18.2,18.4,18.3z"/>
		<path d="M23.9,25.7c0.2-0.3,0.3-0.6,0.5-0.9c0.1-0.1,0.2-0.1,0.3-0.1c0,0.1,0.1,0.3,0,0.4C24.4,25.3,24.1,25.5,23.9,25.7
			C23.9,25.7,23.9,25.7,23.9,25.7z"/>
		<path d="M37.8,19.1c0-0.5,0-0.8,0-1.2c0.3,0.1,0.6,0.2,0.8,0.3c0.1,0.1,0.1,0.5,0,0.6C38.4,19,38.1,19,37.8,19.1z"/>
		<path d="M35.5,19.4c0,0.3,0,0.7,0,1c0,0.2-0.3,0.4-0.4,0.4c-0.2,0-0.4-0.2-0.5-0.4c0-0.7,0-1.4,0-2.1c0-0.1,0.3-0.4,0.5-0.3
			c0.1,0,0.4,0.2,0.4,0.4C35.6,18.7,35.5,19.1,35.5,19.4z"/>
		<path d="M47.2,24.5c0-0.6,0-1.1,0-1.6c0.5,0,1-0.2,1.3,0.3c0.1,0.3,0.1,0.7,0,1C48.2,24.6,47.7,24.5,47.2,24.5z"/>
	</g>
</g>
</svg>
