<?xml version="1.0" encoding="utf-8"?>
<!-- Generator: Adobe Illustrator 19.1.0, SVG Export Plug-In . SVG Version: 6.00 Build 0)  -->
<svg version="1.1" id="Layer_1" xmlns="http://www.w3.org/2000/svg" xmlns:xlink="http://www.w3.org/1999/xlink" x="0px" y="0px"
	 viewBox="0 0 96.5 33.1" style="enable-background:new 0 0 96.5 33.1;" xml:space="preserve">
<style type="text/css">
	.st0{fill:#2F3D44;}
</style>
<g>
	<g>
		<path class="st0" d="M9.4,8.5c0-1.1,0.9-2,2-2h16.1c1.1,0,2,0.9,2,2v16.1c0,1.1-0.9,2-2,2H11.4c-1.1,0-2-0.9-2-2V8.5z M18.9,21.4
			c-0.6,0-0.7,0.1-0.7,0.1l0.2,1c0,0,0.1,0.1,0.5,0.1c0.4,0,0.5-0.1,0.5-0.1l0.2-1C19.5,21.5,19.5,21.4,18.9,21.4 M23.2,14.3
			L23.2,14.3C23.2,14.2,23.2,14.2,23.2,14.3c0.1-0.1,0.2-0.2,0.1-0.2c-0.1,0.1-0.3,0-0.3,0s0.1,0,0.1,0c0.1,0,0.1-0.1,0.1-0.1
			c-0.1,0-0.1,0-0.2,0c-0.3,0-0.3-0.2-0.5-0.2c-0.1,0-0.3,0.1-0.4,0c-0.4-0.8-0.9-2-1.4-3.3c-2.1,0.4-3.1,4-1,4.6
			c-1.1-0.3-1.7-1.4-1.5-2.4c-0.8,0.3-1.8,0.7-2.6,1.6c-0.5,0.6-0.5,1.2-0.5,2.4c0,0.4-0.3,0.5-0.3,0.5s0.4,0,0.5-0.2
			c0.5,0.8,2.9,3,2.9,3.5c0,0-0.1,0.2-0.1,0.2c0.2,0,1.2,0.1,1.2,0.1c0-0.2-0.1-0.3-0.1-0.4c0-1.2,1.7-2.3,1.9-2.5
			c0.1,0,0.2,0.1,0.3,0.1c0.6,0.3-0.1,1.7-0.7,1.7c-0.7,0,0.4-1.2,0.4-1.2c0.1-0.1-0.1,0-0.2-0.1c0,0,0-0.1-0.1-0.1
			c0,0-1.5,1.2-0.4,1.6C22.6,20.9,25.5,16.4,23.2,14.3"/>
	</g>
	<g>
		<path class="st0" d="M37.6,21.1c1.7,0,2.6-0.8,3.1-1.7l-1.3-0.7c-0.3,0.6-1,1.1-1.8,1.1c-1.4,0-2.5-1.1-2.5-2.6
			c0-1.5,1-2.6,2.5-2.6c0.8,0,1.5,0.5,1.8,1.1l1.3-0.7c-0.5-0.9-1.4-1.7-3.1-1.7c-2.4,0-4.1,1.4-4.1,3.9
			C33.5,19.7,35.2,21.1,37.6,21.1 M44,13.3l-2.9,7.9h1.8l0.5-1.3h3.2l0.5,1.3h1.8v0L46,13.3H44z M43.8,18.5l1.2-3.4l1.2,3.4H43.8z
			 M54.2,18.4c0.8-0.2,1.6-0.9,1.6-2.5c0-1.7-0.9-2.6-2.6-2.6h-3.7v7.9h1.6v-2.7h1.3l1.6,2.7h1.8L54.2,18.4z M53,17.3h-1.8v-2.7H53
			c0.7,0,1.2,0.5,1.2,1.3C54.2,16.8,53.7,17.3,53,17.3 M60.4,21.2L60.4,21.2l0.1-6.6h2.4v-1.3h-6.2v1.3h2.2v6.6H60.4z M75.4,13.3
			h-3.1v7.9h3.1c2.5,0,4.1-1.5,4.1-4C79.5,14.7,77.9,13.3,75.4,13.3 M75.4,19.9h-1.5v-5.2h1.5c1.6,0,2.5,1.1,2.5,2.6
			C77.9,18.6,77,19.9,75.4,19.9 M85.7,17.2c0.5-0.1,1.1-0.9,1.1-2c0-1.1-0.7-1.9-2.2-1.9h-4.1v7.9h4.3c1.5,0,2.2-0.9,2.2-2
			C87.1,18.1,86.5,17.3,85.7,17.2 M82.2,14.6h2.1c0.6,0,0.9,0.4,0.9,1c0,0.6-0.4,1-0.9,1h-2.1V14.6z M84.4,19.9l-0.1,0h-2.1v-1.9
			h2.2c0.8,0,1.2,0.4,1.2,1C85.5,19.5,85.1,19.9,84.4,19.9 M65.5,11.8h3.3v1h-3.3V11.8z M67.2,21.3c2.2,0,3.9-1.8,3.9-3.9
			c0-2.2-1.8-3.9-3.9-3.9s-3.9,1.8-3.9,3.9C63.3,19.5,65,21.3,67.2,21.3 M67.2,14.7c1.4,0,2.6,1.2,2.6,2.6c0,1.4-1.2,2.6-2.6,2.6
			s-2.6-1.2-2.6-2.6C64.6,15.9,65.8,14.7,67.2,14.7 M66,18.8l1.3-0.8c0.2-0.1,0.4-0.3,0.5-0.5l0.8-1.3c0.1-0.2,0-0.2-0.1-0.1
			l-1.3,0.8c-0.2,0.1-0.4,0.3-0.5,0.5l-0.8,1.3C65.8,18.9,65.8,18.9,66,18.8 M67.2,17.2c0.2,0,0.3,0.1,0.3,0.3
			c0,0.2-0.1,0.3-0.3,0.3c-0.2,0-0.3-0.1-0.3-0.3C66.9,17.3,67.1,17.2,67.2,17.2"/>
	</g>
</g>
</svg>
