<?xml version="1.0" encoding="utf-8"?>
<!-- Generator: Adobe Illustrator 19.1.0, SVG Export Plug-In . SVG Version: 6.00 Build 0)  -->
<svg version="1.1" id="Layer_1" xmlns="http://www.w3.org/2000/svg" xmlns:xlink="http://www.w3.org/1999/xlink" x="0px" y="0px"
	 viewBox="-351.7 227.6 158.4 158.3" style="enable-background:new -351.7 227.6 158.4 158.3;" xml:space="preserve">
<style type="text/css">
	.st0{fill:#FFFFFF;}
	.st1{fill:#333333;}
</style>
<rect x="-351.7" y="227.6" class="st0" width="158.4" height="158.3"/>
<g>
	<g>
		<polygon class="st1" points="-298.9,346 -298.9,331.4 -318.9,331.4 -318.9,346 -321.2,346 -321.2,314.8 -318.9,314.8 
			-318.9,329.3 -298.9,329.3 -298.9,314.8 -296.6,314.8 -296.6,346 		"/>
	</g>
	<g>
		<path class="st1" d="M-273.3,317.1l-8.2,18h16.4L-273.3,317.1L-273.3,317.1z M-260.2,346l-4-8.7h-18.4l-4,8.7h-2.4l14.5-31.4h2.2
			l14.5,31.4H-260.2L-260.2,346z"/>
	</g>
	<g>
		<polygon class="st1" points="-250,346 -250,314.8 -247.6,314.8 -247.6,343.9 -238.4,343.9 -238.4,346 		"/>
	</g>
	<g>
		<polygon class="st1" points="-225.8,346 -225.8,314.8 -223.5,314.8 -223.5,343.9 -214.3,343.9 -214.3,346 		"/>
	</g>
	<g>
		<g>
			<path class="st1" d="M-334,283.7L-334,283.7c0-8.9,6.6-16.2,15.6-16.2c5.6,0,8.9,2,12.1,5l-1.6,1.7c-2.7-2.6-5.8-4.6-10.5-4.6
				c-7.5,0-13.1,6.1-13.1,13.9v0.1c0,7.9,5.7,14,13.2,14c4.5,0,7.6-1.7,10.7-4.9l1.6,1.5c-3.3,3.3-6.9,5.4-12.4,5.4
				C-327.4,299.7-334,292.6-334,283.7z"/>
		</g>
		<g>
			<path class="st1" d="M-298.3,268h2.3v31.2h-2.3V268z"/>
		</g>
		<g>
			<path class="st1" d="M-288,268h2.6l12.2,28.7L-261,268h2.4l-13.7,31.4h-2L-288,268z"/>
		</g>
		<g>
			<path class="st1" d="M-250.5,268h2.3v31.2h-2.3V268z"/>
		</g>
		<g>
			<path class="st1" d="M-238.9,283.7L-238.9,283.7c0-8.9,6.6-16.2,15.6-16.2c5.6,0,8.9,2,12.1,5l-1.6,1.7
				c-2.7-2.6-5.8-4.6-10.5-4.6c-7.5,0-13.1,6.1-13.1,13.9v0.1c0,7.9,5.7,14,13.2,14c4.5,0,7.6-1.7,10.7-4.9l1.6,1.5
				c-3.3,3.3-6.9,5.4-12.4,5.4C-232.3,299.7-238.9,292.6-238.9,283.7z"/>
		</g>
	</g>
	<g>
		<path class="st1" d="M-211.6,307.8h-51.2v-0.5h51.2V307.8z M-282.6,307.8h-51.2v-0.5h51.2L-282.6,307.8L-282.6,307.8z"/>
	</g>
	<g>
		<g>
			<path class="st1" d="M-270.6,309.1h-1.4l-0.3,1.9h-0.5l0.3-1.9h-2.1l-0.3,1.9h-0.5l0.3-1.9h-1.2v-0.5h1.3l0.4-2.4h-1.3v-0.5h1.4
				l0.3-1.9h0.5l-0.3,1.9h2.1l0.3-1.9h0.5l-0.3,1.9h1.2v0.5h-1.3l-0.4,2.4h1.3L-270.6,309.1L-270.6,309.1z M-274.5,308.6h2.1
				l0.4-2.4h-2.1L-274.5,308.6z"/>
		</g>
	</g>
</g>
</svg>
