<?xml version="1.0" encoding="utf-8"?>
<!-- Generator: Adobe Illustrator 19.1.0, SVG Export Plug-In . SVG Version: 6.00 Build 0)  -->
<svg version="1.1"
	 id="svg2" xmlns:cc="http://creativecommons.org/ns#" xmlns:dc="http://purl.org/dc/elements/1.1/" xmlns:svg="http://www.w3.org/2000/svg" xmlns:rdf="http://www.w3.org/1999/02/22-rdf-syntax-ns#"
	 xmlns="http://www.w3.org/2000/svg" xmlns:xlink="http://www.w3.org/1999/xlink" x="0px" y="0px" viewBox="-275 256.3 239.3 101.7"
	 style="enable-background:new -275 256.3 239.3 101.7;" xml:space="preserve">
<style type="text/css">
	.st0{fill:#333333;}
</style>
<g id="g10" transform="matrix(1.25,0,0,-1.25,-48.144995,955.655)">
	<g id="g16" transform="translate(91.979996,733.02)">
		<path id="path18" class="st0" d="M-220-205v-18.7c0-6.4-5.2-11.5-11.6-11.5h-11.7l2.2,5.1h9.5c3.5,0,6.5,2.8,6.5,6.4v13.5h-13.1
			c-3.5,0-6.4-2.9-6.4-6.4v-22.6h-5.2v22.6c0,6.4,5.2,11.6,11.6,11.6h7.9v10.4h-9.7c-7.1,0-12.8-5.8-12.8-12.8v-31.8h-5.1v31.8
			c0,9.8,7.9,17.9,17.9,17.9h14.9V-205H-220"/>
	</g>
	<g id="g20" transform="translate(102.42,703.5)">
		<path id="path22" class="st0" d="M-220-205c-0.2,1.1-0.9,1.6-1.8,1.6c-1.6,0-2-1.5-2-2.5c0-1,0.4-2.5,2-2.5c0.8,0,1.6,0.4,1.8,1.6
			h1.8c-0.2-2.2-1.7-3.1-3.7-3.1c-2.3,0-3.7,1.2-3.7,3.9c0,2.8,1.4,3.9,3.7,3.9c1.5,0,3.4-0.5,3.7-3H-220"/>
	</g>
	<g id="g24" transform="translate(108.96001,701.64)">
		<path id="path26" class="st0" d="M-220-205c-0.3-0.2-0.6-0.2-0.9-0.2l-0.9-0.2c-0.5,0-0.8-0.2-0.8-0.7c0-0.5,0.4-0.8,1-0.8
			c0.8,0,1.7,0.5,1.7,1.4V-205z M-224-204c0.2,1.7,1.5,2,2.8,2c2.2,0,2.7-0.9,2.7-1.9v-2.8c0-0.5,0-0.8,0.1-1.1h-1.6
			c0,0.2-0.1,0.4-0.1,0.7c-0.5-0.7-1.5-0.8-2.2-0.8c-1.2,0-2.1,0.5-2.1,1.8c0,1.3,1.1,1.6,2,1.7l1.6,0.1c0.5,0,0.7,0.2,0.7,0.6
			c0,0.4-0.3,0.6-1.3,0.6c-0.7,0-1,0-1.2-0.8H-224"/>
	</g>
	<g id="g28" transform="translate(111.42,704.46001)">
		<path id="path30" class="st0" d="M-220-205h1.5v-1.1c0.5,0.9,1,1.3,1.9,1.3c0.2,0,0.4,0,0.5-0.1v-1.7c-0.3,0.1-0.5,0.2-0.8,0.2
			c-1,0-1.6-0.7-1.6-1.7v-2.5h-1.5V-205"/>
	</g>
	<g id="g32" transform="translate(120.24001,702.3)">
		<path id="path34" class="st0" d="M-220-205c0,0.3-0.4,1.3-1.6,1.3c-1.2,0-1.4-1.1-1.4-1.3H-220z M-218.5-206.8
			c-0.5-1.3-1.6-1.9-2.9-1.9c-1.9,0-3.1,0.9-3.1,3c0,2.1,1.2,3,3.1,3c2,0,3-1.2,3-3.3v-0.2h-4.5c0-0.5,0.4-1.3,1.5-1.3
			c0.6,0,1,0.3,1.3,0.7H-218.5"/>
	</g>
	<path id="path36" class="st0" d="M-97.2,495.6h1.7v-1.7h-1.7V495.6z"/>
	<g id="g38" transform="translate(129.12,704.75999)">
		<path id="path40" class="st0" d="M-220-205v-5.9h-0.9v7.4h1.1l4-5.9v5.9h0.9v-7.4h-1L-220-205"/>
	</g>
	<g id="g42" transform="translate(137.58,703.62)">
		<path id="path44" class="st0" d="M-220-205c-1.2,0-1.7-1-1.7-2c0-1,0.5-2,1.7-2c1.3,0,1.7,1,1.7,2C-218.3-206.1-218.7-205-220-205
			z M-220-204.1c1.8,0,2.6-1.3,2.6-2.9c0-1.6-0.8-2.9-2.6-2.9c-1.7,0-2.6,1.3-2.6,2.9C-222.6-205.5-221.7-204.1-220-204.1"/>
	</g>
	<g id="g46" transform="translate(150.17999,702.36)">
		<path id="path48" class="st0" d="M-220-205c0,1-0.5,1.3-1.1,1.3c-0.8,0-1.5-0.4-1.5-1.4v-3.4h-0.8v3.5c0,1-0.5,1.3-1.1,1.3
			c-0.8,0-1.5-0.5-1.5-1.6v-3.2h-0.8v5.5h0.8v-0.8h0.1c0.4,0.8,1.1,1,1.7,1c0.6,0,1.2-0.3,1.6-1c0.4,0.7,1,1,1.8,1
			c0.5,0,1.7-0.3,1.7-1.9v-3.7h-0.9V-205"/>
	</g>
	<g id="g50" transform="translate(155.52,701.75999)">
		<path id="path52" class="st0" d="M-220-205c-0.2-0.2-0.4-0.3-0.8-0.4l-1-0.2c-0.7-0.1-1.1-0.3-1.1-0.8c0-0.5,0.5-0.9,1.1-0.9
			c1,0,1.8,0.6,1.8,1.5V-205z M-223.5-204.1c0.1,1.4,0.9,1.9,2.3,1.9c0.9,0,2.1-0.3,2.1-1.6v-2.9c0-0.3,0.1-0.4,0.4-0.4
			c0.1,0,0.2,0,0.3,0v-0.7c-0.2-0.1-0.5-0.1-0.7-0.1c-0.5,0-0.7,0.2-0.8,0.8c-0.4-0.5-1.2-0.9-1.9-0.9c-1.6,0-1.9,1-1.9,1.6
			c0,1,0.5,1.5,2,1.7l1,0.1c0.5,0.1,0.8,0.2,0.8,0.7c0,0.7-0.6,0.9-1.3,0.9c-0.8,0-1.4-0.2-1.4-1.1H-223.5"/>
	</g>
	<g id="g54" transform="translate(157.62,706.02)">
		<path id="path56" class="st0" d="M-220-205h0.9v-1.7h1.3v-0.8h-1.3v-3.4c0-0.5,0.2-0.6,0.7-0.6c0.2,0,0.4,0,0.6,0.1v-0.9
			c-0.3-0.1-0.6-0.1-1-0.1c-0.8,0-1.2,0.5-1.2,1.3v3.6h-0.9v0.8h0.9V-205"/>
	</g>
	<g id="g58" transform="translate(160.86,706.02)">
		<path id="path60" class="st0" d="M-220-205h0.8v-1.7h1.4v-0.8h-1.4v-3.4c0-0.5,0.3-0.6,0.8-0.6c0.1,0,0.4,0,0.6,0.1v-0.9
			c-0.3-0.1-0.6-0.1-1-0.1c-0.8,0-1.2,0.5-1.2,1.3v3.6h-1v0.8h1V-205"/>
	</g>
	<g id="g62" transform="translate(167.52,702.12)">
		<path id="path64" class="st0" d="M-220-205c-0.1,1-0.7,1.5-1.6,1.5s-1.5-0.5-1.7-1.5H-220z M-223.2-205.8c0-1.1,0.9-1.7,1.7-1.7
			c0.4,0,1.1,0.2,1.4,1h0.9c-0.4-1.3-1.4-1.9-2.3-1.9c-1.7,0-2.6,1.3-2.6,2.9c0,1.6,0.9,2.9,2.6,2.9c1.2,0,2.5-0.8,2.5-3.1v-0.1
			H-223.2"/>
	</g>
	<g id="g66" transform="translate(169.08,704.34)">
		<path id="path68" class="st0" d="M-220-205h0.9v-1c0.4,0.9,1,1.2,1.6,1.2c0.1,0,0.3,0,0.4-0.1v-1.1c-0.2,0.1-0.4,0.1-0.6,0.1
			c-0.8,0-1.4-0.6-1.4-1.7v-2.8h-0.9V-205"/>
	</g>
	<g id="g70" transform="translate(181.02,704.34)">
		<path id="path72" class="st0" d="M-220-205h0.9l-1.8-5.5h-0.9l-1.1,4.1l-1.1-4.1h-1l-1.7,5.5h1l1.2-4.1h0.1l1.1,4.1h0.9l1.2-4.1
			L-220-205"/>
	</g>
	<g id="g74" transform="translate(182.46001,706.32001)">
		<path id="path76" class="st0" d="M-220-205h0.8v-2.8h0.1c0.4,0.8,1.1,1,1.7,1c1.1,0,1.9-0.6,1.9-1.9v-3.7h-0.8v3.5
			c0,0.8-0.5,1.3-1.4,1.3c-0.8,0-1.5-0.5-1.5-1.6v-3.2h-0.8V-205"/>
	</g>
	<g id="g78" transform="translate(191.46001,701.75999)">
		<path id="path80" class="st0" d="M-220-205c-0.1-0.2-0.4-0.3-0.8-0.4l-1-0.2c-0.7-0.1-1-0.3-1-0.8c0-0.5,0.4-0.9,1-0.9
			c1,0,1.8,0.6,1.8,1.5V-205z M-223.5-204.1c0.1,1.4,0.9,1.9,2.2,1.9c0.9,0,2.1-0.3,2.1-1.6v-2.9c0-0.3,0.1-0.4,0.4-0.4
			c0.1,0,0.2,0,0.3,0v-0.7c-0.2-0.1-0.4-0.1-0.7-0.1c-0.4,0-0.7,0.2-0.7,0.8c-0.4-0.5-1.2-0.9-2-0.9c-1.5,0-1.8,1-1.8,1.6
			c0,1,0.5,1.5,1.9,1.7l1,0.1c0.5,0.1,0.8,0.2,0.8,0.7c0,0.7-0.6,0.9-1.3,0.9c-0.7,0-1.4-0.2-1.4-1.1H-223.5"/>
	</g>
	<g id="g82" transform="translate(193.67999,706.02)">
		<path id="path84" class="st0" d="M-220-205h0.9v-1.7h1.3v-0.8h-1.3v-3.4c0-0.5,0.2-0.6,0.7-0.6c0.2,0,0.4,0,0.6,0.1v-0.9
			c-0.3-0.1-0.6-0.1-1-0.1c-0.8,0-1.2,0.5-1.2,1.3v3.6h-0.9v0.8h0.9V-205"/>
	</g>
	<path id="path86" class="st0" d="M-23.3,495.1h1.1v-1.3h-1.1V495.1z"/>
	<g id="g88" transform="translate(100.02,740.58)">
		<path id="path90" class="st0" d="M-220-205v5.5h4.4c1.2,0,1.8-0.9,1.8-2.8c0-1.7-0.7-2.6-1.9-2.6H-220z M-220-212.6v5.1h5.2
			c3,0,4.3,2.4,4.3,5.1c0,3-1.1,5.3-4.4,5.3h-8.1v-15.5H-220"/>
	</g>
	<g id="g92">
		<g id="g94">
			<g id="g100" transform="translate(113.7,749.03999)">
				<path id="path102" class="st0" d="M-220-205h-2.8v-13c0-1.7,0.5-2.8,1.2-3.7l2.5,1c-0.7,0.8-0.9,1.7-0.9,2.7V-205"/>
			</g>
		</g>
	</g>
	<g id="g104" transform="translate(122.94,735.17999)">
		<path id="path106" class="st0" d="M-220-205c-0.6-0.2-1.4-0.4-2.3-0.4c-1.7,0-2.1,0.2-2.1,1.7s0.6,1.7,2.1,1.7
			c0.8,0,1.7-0.1,2.3-0.2V-205z M-217.3-199.9c0,3.4-1.6,4.4-5,4.4c-1.6,0-3.3-0.3-4.5-0.6l0.5-2.3c0.9,0.4,2.2,0.6,3.4,0.6
			c2.3,0,2.8-0.5,2.8-2.5c-0.9,0.1-1.8,0.3-2.8,0.3c-2.6,0-4.5-0.5-4.5-3.8c0-3,1.2-3.8,4.8-3.8c1.7,0,3.8,0.4,5.2,0.9V-199.9"/>
	</g>
	<g id="g108" transform="translate(130.14,741.89999)">
		<path id="path110" class="st0" d="M-220-205c0.7,0.2,1.3,0.2,2,0.2c1.9,0,2.4-0.6,2.4-3.1v-6h2.8v6.3c0,4.1-1.4,5.4-4.6,5.4
			c-1.9,0-4.1-0.5-5.5-1.1v-10.6h2.8V-205"/>
	</g>
	<g id="g112" transform="translate(141.84,741.89999)">
		<path id="path114" class="st0" d="M-220-205c0.7,0.2,1.3,0.2,2,0.2c1.9,0,2.4-0.6,2.4-3.1v-6h2.8v6.3c0,4.1-1.4,5.4-4.6,5.4
			c-1.8,0-4.1-0.5-5.4-1.1v-10.6h2.8V-205"/>
	</g>
	<g id="g116" transform="translate(153.53999,740.03999)">
		<path id="path118" class="st0" d="M-220-205c0.2,1.9,0.8,2.4,2.6,2.4c1.6,0,2.2-0.4,2.2-2.4H-220z M-213.8-209.6
			c-0.9-0.3-2.4-0.5-3.2-0.5c-1.9,0-2.9,0.5-2.9,2.9h7.4c0.2,5.5-1.4,6.8-5,6.8c-3.3,0-5.3-1.4-5.3-6c0-4.7,2.3-6.1,5.6-6.1
			c1.1,0,2.9,0.3,4,0.7L-213.8-209.6"/>
	</g>
	<g id="g120">
		<g id="g122">
			<g id="g128" transform="translate(169.86,735.3)">
				<path id="path130" class="st0" d="M-220-205c-0.6-0.1-1.4-0.3-2.2-0.3c-2,0-2.6,0.6-2.6,3.7c0,2.8,0.6,3.6,2.5,3.6
					c1.3,0,2.3-0.4,2.3-1.1V-205z M-217.2-191.3h-2.8v-5c-0.6,0.3-1.4,0.7-2.7,0.7c-3.1,0-5-1.4-5-6.1c0-4.6,1.7-6,5.5-6
					c1.6,0,3.7,0.4,4.9,0.8V-191.3"/>
			</g>
		</g>
	</g>
	<g id="g132" transform="translate(100.02,719.88)">
		<path id="path134" class="st0" d="M-220-205v5.5h4.4c1.2,0,1.8-0.9,1.8-2.8c0-1.8-0.7-2.7-1.9-2.7H-220z M-220-212.7v5.1h5.2
			c3,0,4.3,2.5,4.3,5.1c0,3.1-1.1,5.4-4.4,5.4h-8.1v-15.6H-220"/>
	</g>
	<g id="g136" transform="translate(117.72,714.48)">
		<path id="path138" class="st0" d="M-220-205c-0.7-0.2-1.5-0.4-2.2-0.4c-1.7,0-2.1,0.2-2.1,1.8c0,1.4,0.5,1.7,2.1,1.7
			c0.8,0,1.6-0.1,2.2-0.2V-205z M-217.3-199.9c0,3.4-1.6,4.4-4.9,4.4c-1.7,0-3.4-0.3-4.5-0.6l0.4-2.2c1,0.3,2.3,0.5,3.5,0.5
			c2.4,0,2.8-0.5,2.8-2.5c-1,0.2-1.9,0.3-2.8,0.3c-2.7,0-4.5-0.5-4.5-3.7c0-2.9,1.2-3.8,4.8-3.8c1.6,0,3.7,0.3,5.2,0.9V-199.9"/>
	</g>
	<g id="g140" transform="translate(122.10001,712.25999)">
		<path id="path142" class="st0" d="M-220-205h2.8v7.9c0,0.8,1.3,1.3,2.6,1.3c0.5,0,1-0.1,1.5-0.2v2.6c-0.5,0.1-0.8,0.1-1.2,0.1
			c-1.7,0-2.5-0.5-2.9-1.2v0.9h-2.8V-205"/>
	</g>
	<g id="g144" transform="translate(132.3,719.34)">
		<path id="path146" class="st0" d="M-220-205c0.2,1.9,0.8,2.5,2.6,2.5c1.6,0,2.2-0.4,2.2-2.5H-220z M-213.8-209.6
			c-0.9-0.2-2.4-0.5-3.2-0.5c-2,0-2.9,0.5-2.9,2.9h7.4c0.2,5.5-1.4,6.7-5,6.7c-3.3,0-5.3-1.4-5.3-5.9c0-4.7,2.3-6.1,5.6-6.1
			c1.1,0,2.8,0.2,4,0.6L-213.8-209.6"/>
	</g>
	<g id="g148" transform="translate(143.88,721.2)">
		<path id="path150" class="st0" d="M-220-205c0.7,0.2,1.3,0.3,2,0.3c2,0,2.5-0.7,2.5-3.1v-6.1h2.8v6.4c0,4-1.4,5.3-4.6,5.3
			c-1.8,0-4-0.4-5.5-1V-214h2.8V-205"/>
	</g>
	<g id="g152" transform="translate(160.44,721.2)">
		<path id="path154" class="st0" d="M-220-205v2.5h-3.7v3l-2.8-1.1v-1.9h-1.9v-2.5h1.9v-5.1c0-3.4,1.3-4.1,3.8-4.1
			c1.1,0,2.3,0.2,3.1,0.5l-0.5,2.2c-0.6-0.1-1.2-0.3-1.9-0.3c-1.4,0-1.7,0.5-1.7,2v4.9H-220"/>
	</g>
	<g id="g156" transform="translate(171.89999,718.8)">
		<path id="path158" class="st0" d="M-220-205c0,4.3-1.4,5.2-4.1,5.2c-1.1,0-2.4-0.4-3.2-0.7v5.2h-2.7v-16.1h2.7v8.2
			c0,0.7,1.1,1,2.3,1c1.7,0,2.2-1,2.2-2.9v-6.3h2.8V-205"/>
	</g>
	<g id="g160" transform="translate(176.03999,717.96001)">
		<path id="path162" class="st0" d="M-220-205c0,3.2,0.6,3.8,2.5,3.8c2,0,2.6-0.5,2.6-3.8c0-3.1-0.6-3.7-2.6-3.7
			C-219.4-208.8-220-208.2-220-205z M-222.9-204.9c0-4.7,1.8-6.1,5.4-6.1c3.7,0,5.5,1.4,5.5,6.1c0,4.6-1.8,5.9-5.5,5.9
			C-221.1-199-222.9-200.4-222.9-204.9"/>
	</g>
	<g id="g164" transform="translate(188.16,717.96001)">
		<path id="path166" class="st0" d="M-220-205c0,3.2,0.6,3.8,2.6,3.8c1.9,0,2.5-0.5,2.5-3.8c0-3.1-0.6-3.7-2.5-3.7
			C-219.4-208.8-220-208.2-220-205z M-222.8-204.9c0-4.7,1.7-6.1,5.4-6.1c3.6,0,5.4,1.4,5.4,6.1c0,4.6-1.8,5.9-5.4,5.9
			C-221-199-222.8-200.4-222.8-204.9"/>
	</g>
	<g id="g168" transform="translate(205.08,714.66)">
		<path id="path170" class="st0" d="M-220-205c-0.6-0.2-1.4-0.4-2.3-0.4c-1.9,0-2.5,0.6-2.5,3.8c0,2.8,0.6,3.6,2.5,3.6
			c1.3,0,2.3-0.5,2.3-1.1V-205z M-217.2-191.3h-2.8v-5.1c-0.6,0.4-1.4,0.7-2.8,0.7c-3,0-4.9-1.4-4.9-6c0-4.6,1.7-6,5.4-6
			c1.7,0,3.8,0.3,5,0.8V-191.3"/>
	</g>
	<g id="g172" transform="translate(211.98,726.48)">
		<path id="path174" class="st0" d="M-220-205h0.4c0.2,0,0.4,0.1,0.4,0.3c0,0.3-0.3,0.3-0.5,0.3h-0.3V-205z M-220.5-204.1h0.9
			c0.6,0,0.9-0.2,0.9-0.7s-0.3-0.6-0.6-0.7l0.5-0.9h-0.5l-0.5,0.9h-0.2v-0.9h-0.5C-220.5-206.4-220.5-204.1-220.5-204.1z
			 M-219.7-206.8c0.9,0,1.5,0.6,1.5,1.6c0,1-0.6,1.6-1.5,1.6c-0.9,0-1.5-0.6-1.5-1.6C-221.2-206.2-220.6-206.8-219.7-206.8z
			 M-219.7-203.1c1.1,0,2.1-0.9,2.1-2.1c0-1.1-1-2.1-2.1-2.1c-1.2,0-2.1,1-2.1,2.1C-221.8-204-220.9-203.1-219.7-203.1"/>
	</g>
</g>
</svg>
